<?xml version="1.0" encoding="UTF-8"?>
<svg id="_лой_1" data-name="Слой 1" xmlns="http://www.w3.org/2000/svg" viewBox="0 0 125.24 150.34">
  <defs>
    <style>
      .cls-1, .cls-2 {
        fill-rule: evenodd;
      }

      .cls-1, .cls-3 {
        fill: #1d1d1b;
      }

      .cls-2 {
        fill: #ff5100;
      }
    </style>
  </defs>
  <path class="cls-1" d="M125.24,140.42v9.92H0v-9.92H125.24Z"/>
  <path class="cls-2" d="M122.97,142.68H2.27v5.39H122.97v-5.39Z"/>
  <path class="cls-3" d="M120.6,137.1v-9.09c-.11,0-.22-.01-.33-.02-.37,1.5-.75,3-1.12,4.51-.37,1.53-.74,3.06-1.1,4.6-1.63,0-3.26,0-4.89,0,.52-1.68,1.05-3.35,1.58-5,.52-1.64,1.05-3.27,1.58-4.89-.65-.41-1.32-.98-1.83-2.03-.51-1.05-.86-2.6-.86-4.92,0-2.69,.55-4.34,1.52-5.24,.96-.89,2.34-1.03,3.97-.74,2.01,.35,4.03,.71,6.04,1.06v21.76c-1.52,0-3.04,0-4.56,0h0Zm-59.07-5.02c-.31,0-.62-.02-.93-.03v6.85h4.25v-1.82h4.72v1.82h4.25v-6.49c-.31-.01-.62-.02-.93-.03v-26.25c-3.48-.61-6.95-1.23-10.43-1.84v12.99c0,3.5-.06,6.16-.19,8.47-.14,2.31-.37,4.25-.74,6.32h0Zm6.8-21.92v22.11c-1.02-.03-2.03-.06-3.05-.09,.41-1.91,.67-3.94,.82-6.24,.15-2.29,.2-4.86,.2-7.84v-8.25c.67,.1,1.35,.2,2.03,.3h0Zm6.16,26.92c1.48,0,2.96,0,4.44,0,.53-2.86,1.06-5.7,1.59-8.52,.53-2.8,1.06-5.59,1.59-8.36,0,0,.02,0,.03,0v16.88c1.37,0,2.74,0,4.11,0v-28.6c-1.5-.26-3-.53-4.5-.79-.52,2.71-1.05,5.44-1.57,8.18-.52,2.76-1.04,5.54-1.56,8.33-.01,0-.03,0-.03,0v-17.07c-1.38-.24-2.74-.48-4.11-.72v30.66h0Zm17.61-4.17v-23.38c-1.52-.27-3.03-.53-4.55-.8v28.37c2.73,0,5.47,0,8.21,0v1.81h4.28v-5.78c-.32,0-.65-.02-.96-.03v-22.34c-1.52-.27-3.04-.54-4.56-.81v23.02c-.81-.02-1.61-.04-2.41-.06h0Zm8.58,4.18c1.48,0,2.96,0,4.45,0,.53-2.41,1.06-4.82,1.59-7.2,.53-2.36,1.06-4.71,1.59-7.04,0,0,.01,0,.03,0v14.23c1.37,0,2.74,0,4.12,0v-23.99c-1.5-.27-3-.53-4.5-.79-.52,2.28-1.05,4.56-1.57,6.87-.52,2.32-1.05,4.66-1.56,7.02-.01,0-.02,0-.03,0v-14.45c-1.38-.24-2.75-.48-4.12-.72v26.06h0Zm19.92-19.31c-.24-.03-.48-.07-.72-.11-1.59-.24-1.7,.42-1.7,3.13s.11,3.75,1.7,3.91c.24,.02,.48,.05,.72,.07v-7h0Zm-60.63,19.29v-4.89c-1.63,.05-3.26,.1-4.89,.15v-10.23c1.57-.14,3.14-.28,4.72-.41v-4.89c-1.58,.18-3.15,.36-4.72,.54v-6.88c1.63-.25,3.26-.5,4.89-.74v-4.89c-3.15,.56-6.3,1.13-9.44,1.69v30.59c3.14,0,6.29,0,9.44-.02h0Zm-55.34-8.68v3.8c0,.91,.25,1.75,1.23,1.72,.93-.03,1.18-.9,1.18-1.82v-5.25c-.66,.05-1.32,.11-1.98,.16v-3.4c.66-.07,1.32-.14,1.98-.21v-4.1c0-.93-.25-1.76-1.18-1.61-.99,.15-1.23,1.04-1.23,1.95v3.11c-1.52,.17-3.04,.36-4.55,.53v-2.39c0-2.33,.62-3.87,1.65-4.91,1.03-1.05,2.48-1.6,4.14-1.91,1.51-.28,2.95-.17,4,.67,1.06,.86,1.74,2.48,1.74,5.18v10.74c0,2.7-.68,4.45-1.74,5.49-1.05,1.04-2.49,1.4-4,1.4-1.92,0-3.37-.5-4.34-1.49-.96-.98-1.45-2.47-1.45-4.48v-2.85c1.52-.11,3.03-.22,4.55-.33h0Zm12.81,8.69v-12.5s.04,0,.05,0c.46,2.05,.91,4.12,1.37,6.19,.46,2.09,.92,4.2,1.38,6.31,1.5,0,3,0,4.5,0-.52-2.41-1.03-4.8-1.55-7.18-.51-2.36-1.02-4.7-1.53-7.03,.5-1.92,1.02-3.86,1.52-5.82,.5-1.96,1.02-3.94,1.53-5.94-1.45,.26-2.89,.52-4.34,.78-.49,1.99-.96,3.96-1.44,5.91-.48,1.95-.96,3.87-1.44,5.79-.02,0-.04,0-.05,0v-11.18c-1.52,.27-3.04,.55-4.56,.82v23.83c1.52,0,3.04,0,4.56,0h0Zm18.99-10.91c-1.52,.1-3.04,.21-4.56,.32v4.63c0,1.11-.25,2.15-1.23,2.17-.93,.02-1.18-.99-1.18-2.08v-15.07c0-1.09,.25-2.15,1.18-2.29,.99-.15,1.23,.85,1.23,1.95v3.75c1.52-.17,3.04-.35,4.56-.52v-3.07c0-3.04-.62-4.81-1.65-5.74-1.03-.92-2.48-1-4.14-.7-1.51,.28-2.94,.96-4,2.32-1.05,1.35-1.73,3.35-1.73,6.33v11.83c0,2.97,.68,4.86,1.73,6.02,1.06,1.16,2.49,1.59,4,1.6,1.92,0,3.38-.6,4.34-1.88,.97-1.29,1.46-3.24,1.46-5.86v-3.71h0Zm5.85,10.92v-24.7c.8-.12,1.6-.25,2.41-.37v25.07c1.52,0,3.04,0,4.56,0v-30.37c-3.84,.69-7.69,1.38-11.53,2.07v28.3c1.52,0,3.04,0,4.56,0Z"/>
  <g>
    <path class="cls-2" d="M62.63,32.65c26.94,0,48.78,21.84,48.78,48.78,0,9.59-2.77,18.53-7.55,26.08l-5.96-1.06-35.26-6.29-35.27,6.29-5.96,1.06c-4.78-7.54-7.55-16.49-7.55-26.08,0-26.94,21.84-48.78,48.78-48.78Z"/>
    <path class="cls-1" d="M62.63,98.51l.51,.09c0-.06-.01-.12-.01-.19,0-.38,.09-1.03,.19-1.7,.09-.67,.02-2.31-.03-3.14-.05-.83,.16-1.8,.16-1.99s-.42-1.03-.44-1.76c-.03-.73-.47-3.12-.47-3.12,0,0-.32,1.76-.49,2.65-.17,.89-.9,2.42-.9,2.79s.16,1.92-.28,3.05c-.29,.75-.29,1.33-.23,2.17,.06-.04,.05,.03,.03,.3-.01,.17,.02,.38,.02,.42,.05,.44-.02,.5,0,.55,.05,.1,.06,.14,.06,.21l1.9-.34h0Zm-20.28,3.62l-5.98-12.65c.22-.2,.34-.41,.34-.47,0-.04,.03-.1,.11-.17,.03,.05,.29,.09,.59-.13,1.08-.79,2.01-1.97,2.25-2.36,.16-.27,.97-1.4,1.06-1.52,.07-.09,.18,.13,.39,.58-.41,1.76-.81,4.58-.87,5.34-.07,.86,.64,2.33,.8,2.99,.03,.12,.13,.17,.26,.22,.17,.06,.37,.03,.55-.05,.01,.2,.02,.39,.02,.54,.01,.61,0,.67-.14,1.29-.1,.43-.09,1.26-.04,2.06,.06,1,.45,1.78,.65,2.74,.07,.35,.06,.59,.05,.86,0,.13-.05,.27-.05,.44,0,.1,.03,.2,.07,.28h-.08Zm2.17-.37c-.15-.09-.28-.19-.37-.33-.28-.4-.38-.68-.44-1.1-.04-.28-.09-.65-.08-1.3,0-.1-.08-.03-.08-.13-.05-.69-.05-1.45-.05-1.75,0-.56,.12-.97,.22-1.17,.1-.2,.28-1.11,.27-1.68,0-.57,.38-2.14,.38-2.14,0,0,.88,1.53,1.09,1.95,.21,.42,.08,.67,.22,1,.14,.33,.1,.54,.11,.76,.06,1.44,.41,3.07,.52,4.46,.04,.45-.11,.65-.11,.96,0,.07,0,.13,.01,.18l-1.67,.3h0Zm4.19-.75c-.25-.13-.5-.31-.61-.42-.12-.12-.39-.26-.39-.7,0-.69,.09-1.33,.08-1.54,0-.04-.07-.04-.07-.09,.01-.98,.06-2.49,.03-2.83-.03-.36,.07-1-.11-1.42-.18-.41-.43-1.63-.8-2.7-.36-1.07-.88-2.14-.89-2.33-.02-.19-.06-.9-.27-1.58-.21-.68-.37-1.69-.24-2.23,.13-.54,.18-.97-.1-1.36-.28-.39-.41-.53-.51-.63,0,0,.34-.49,.82-.97,.49-.48,1.02-1.5,1.22-2.02,.2-.53-.27-.6-.48-.67-.2-.06-.59-.43-.63-.56-.04-.14-.44,.12-.44,.12l-.48-.09s.34-.38,.33-.7c0-.32-.14-.49-.27-.56-.13-.07-.4,.15-.69,.28-.29,.12-.35,.19-.52,.12-.17-.07-.35-.17-.56-.18-.21-.01-.49,.1-.49,.1,0,0-.02-.1-.16-.09-.14,.01-.13,.21-.13,.21l-.08,.04s.02-.04-.08-.03c-.1,0-.18,.05-.21,.11-.03,.06-.09,.19-.09,.19,0,0-.15-.04-.18,.04-.02,.07-.11,.23-.11,.23l.02,.12s-.02,.02-.07,.11c-.05,.08,.06,.1,0,.2-.03,.05-.04,.23-.02,.44-.5,.3-.81,.75-.86,1.22-.04,.33-.02,.65,.02,.93-.32,.11-.45,.44-.79,1.07-.4,.76-.58,1.55-.96,2.18-.37,.63-.93,1.48-1.47,1.98-.64,.58-1.22,.89-1.08,1.17-.08,.08-.14,.13-.15,.15-.05,.06-.16-.05-.34-.06-.04,0-.08,0-.13,.02l-.68-1.44-.46,.24,.65,1.43c-.06,.04-.12,.09-.16,.13-.18,.19-.15,.29-.09,.41,.06,.12,.1,.1,.17,.09-.03,.02-.06,.11-.03,.17,.07,.15,.06,.11,.16,.14,0,0-.05,.04,.02,.15,.07,.11,.13,.17,.17,.14,0,.05,.23,.12,.33,.08h.03c1.97,4.34,3.58,7.94,5.94,12.42l-15.89,2.84c-4.4-6.81-6.95-14.92-6.95-23.63,0-10.83,3.95-20.75,10.49-28.38,2.36-.41,5.88-1.02,11.33-1.97-.51,1.26,.12,2.93,.95,3.72,1.13,1.02,2.42,2.37,3.38,2.26,.06,0,.12,0,.17,0-.31,.63-.36,.74,.17,1l2.87,1.38h.05c-.2,.57-.59,1.63,.64,2.14,1.04,.43,1.54,.05,2.28-.68l7.33,2.72c-.14,.6,.36,1.24,.97,1.24,.38,0,.96-.19,1.06-.67l1.69-.45,3.83,1.07c.73,.17,1.64,.29,2.6,.28,1.13,0,2.37-.17,3.44-.67,.45-.28,.96-.5,1.47-.67,1.3-.57,2.48-1.12,3.05-2.2,.22-.51,.23-.85,.22-1.07l15.68,5.38c1,.35,1.89,.11,2.46-.61l2.48-3.15,3.61,3.28,.41-1.8-3.51-2.14,.24-.31c.4-.5,.52-.92,.47-1.12l-.16-.68c-.1-.43-.55-.03-.57-.01l-1.23,.86c-.09-.17-.24-.29-.42-.35l.19-5.12-1.7-2.03,1.07,7.14c-.24,.07-.42,.26-.49,.49-1.48,.16-5.88,.53-5.88,.53l.06,.78c-5.59-2.52-10.37-5.14-15.95-7.67-1.76-.73-3.43-1.83-5.24-2.43-.11,.06-.17-.34-.5-1.02-.4-.62-1.13-1.53-3.1-2.54l-1.41-.73c-.03-.17-.06-.33-.05-.51,.45,.06,.9-.22,1.18-.56l6.88-.33,.06,.68c8.02-.18,13.02-.3,16.72-.38,10.91,7.93,18.01,20.8,18.01,35.32,0,8.71-2.55,16.82-6.95,23.63l-14.34-2.56c.04-.07,.05-.17,.06-.31,.01-.3-.16-.81-.16-1.12,.04-2.35,.38-3.74-.33-5.05-.12-.22-.05-.5-.02-.75,.28-1.21,.5-2.59,.75-4.19,.07-.18,.14-.32,.21-.46,2.45-.43,2.95-1.1,2.48-2.48-.25-1.85-.35-4.97-1.24-7.21-.18-.43-.46-.92-.89-1.03-.18-.67-.43-1.63-1.31-1.45-.64,.03-1.7,.28-2.02,.89-.32,.28-.46-.07-.39-.11,.28-.07,.32,0,.5-.18,.18-.25,.71-.75-.5-.75-.74,0,.07-.99-1.46-1.1-1.35-.36-1.56,.5-1.56,.5-.68,.07-1.63,0-.89,.57,.25,.18,.5,.32,.78,.43,0,.14,.04,.25-.07,.43-.25,.89,.07,1.07,.07,1.42,0,.29,.57,.32,.89,.5,.11,.11,.32,0,.14,.53-.6,.53-.5,.5-.6,.92-.14,.5,.07,2.63-.43,2.87-.53-.25-1.85-1.21-1.95-1.1-.07-.07-.14-.11-.21-.18-.18-.07-.21,.11-.32,.07,.07-1.78,.07-3.44-.35-5.08l-.71,.35c.39,1.46,.39,3.05,.32,4.79-.11-.03-.21,.21-.14,.36-.07,.03-.11,.18-.07,.28-.04,.11-.07,.21,.04,.32,0,.11-.04,.21,.11,.25-.11,1.35-.18,2.8-.14,4.33,.14,3.1,.08,7.81,.19,11.08l-9.97-1.78v-.09c-.07-.42-.24-.48-.37-.48s-.2-.19-.2-.19c0,0-.27-.95-.1-2.01,.17-1.06,.28-3.73,.28-3.73,0,0-.12-1.03,.05-1.78,.17-.75,.04-3.06-.12-4.46v-.06h0c-.03-.48-.06-.61-.09-.72l-.04-.24c-.07-1.21,1.07-.09,1.49-1.35,.54-1.48-.11-4.44-.69-5.85-.32-.87-.51-1.52-.58-2.06-.29-.97,.11-1.98,.32-2.74,.33-.58,.34-3.8,.88-4.95,.15-.25,.57-.59,.71-.84,.11-.25,.07-.26,.17-.47,.04-.14,.08-.3,.12-.48,0-.04,.04-.14,0-.18,0-.04-.07-.07-.11,0-.04,.04-.08,.18-.08,.22-.04,.07-.07,.13-.1,.25-.04,.09-.1,.19-.1,.19,.03-.07,.05-.19,.07-.24,.04-.13,.06-.23,.07-.37,0-.1,.01-.23,.01-.33-.04-.07-.11-.07-.14,0-.04,.04-.07,.24-.07,.31,0,.07-.05,.17-.11,.3,.06-.24,.06-.25,.07-.33,0-.05,.02-.18,.02-.27,0-.07-.03-.08-.07-.08-.07,0-.14,.13-.13,.31-.05,.07-.09,.25-.09,.32-.05,.06-.11,.26-.14,.32l.06-.36-.04-.29-.08-.22q-.04-.07-.07-.03c-.1,.02-.06,.23-.02,.3-.04,.07-.03,.19-.03,.26-.03,.07-.07,.18-.07,.33-.04,.04-.05,.08-.2,.18-.18,.14-.4,.24-.51,.2-.02-.06-.06-.3-.1-.34,0-.25-.08-.41-.23-.37,0,.04,0,.19-.03,.35,0,.17,.07,.3,.06,.49,0,.08,0,.14,.02,.18,.06,.14,.18,.26,.18,.34-.05,.38-.28,1.09-.38,1.37-.35,.97-.84,1.75-1.18,3.45-.04,.54-.25,.94-.5,1.23-.61,.22-.76,.54-.87,.5-.07-.04-.07-.14-.25-.14q-.04-.43-.14-.58c-.11-.14,.11-.18-.15-.54,.29-.4-.4-.83-.79-.94-.11-.18-.76-.11-1.05,.22-.22,.25-.58,.18-.83,.36l-.04,.04c-.25-.18-.58-.36-.94-.54-1.3-.65-2.96-1.08-3.5-.72,.18,1.26,.22,1.95,.76,3.21,.47,1.23,1.34,2.27,1.8,3.5,.33,.86,.69,1.7,.99,2.57,.4,1.16,.65,2.34,.71,3.57,.04,.47,.11,.67,.07,1.14-.02,.41-.04,.83-.08,1.25h.02c-.07,1.55-.12,4.11-.12,4.57,0,.48,.05,.5,.05,.5,0,0-.42,2.61-.54,3.81-.12,1.2-.49,2.25-.82,2.59-.33,.34-.47,.36-.76,.42-.3,.06-.39,.09-.42,.25-.02,.08-.12,.29-.1,.49l-7.89,1.41h0Zm-6.94-20.66c-.01,.28,.09,.64,.27,1.04,.13-.13,.19-.3,.19-.42,0-.16,.06-.3,0-.34-.05-.03-.26,0-.47-.29h0Zm-.29,10.2c0-.08,.01-.16,.03-.24,.06-.4,.39-1.55,.33-2.4-.06-.79-.17-1.28-.46-1.92-.1,1.06-.35,4.08,.11,4.57h0Zm3.16-10.68s-.01,.4,0,.57c.02,.17,.16,.37,0,.46-.17,.08-.58,.16-.67,.27-.09,.11-.23,.38-.23,.38,0,0,.02,.3,.5-.03,.48-.33,.87-.75,1.07-.92,.19-.18,.05-.3-.21-.46-.26-.16-.46-.26-.46-.26h0Zm35.61,21.8l1.37,.24s.03-.05,.05-.07c.14-.17,.45-.15,.78-.16,.33,0,.62-.52,.74-.78,0,0,0-.82-.1-1.61-.09-.7-.21-1.25-.24-1.53-.13-1.09-.46-1.21-.48-1.88-.03-1.07-.04-2.36,0-3.36-.43,1.38-.87,1.96-1.33,2.85-.11,.25-.23,.56-.23,.91,.37,.86-.15,2.49-.51,3.47-.23,.63,.03,.83,0,1.23-.03,.27-.02,.5-.03,.68h0Zm3.05-58.67c-3.73-2.01-7.79-3.5-12.08-4.35-.39,.45-.79,.9-1.2,1.37l-2.71-.05h0l-2.94,4.22c9.2-.58,14.44-.9,18.92-1.18h0Zm-17.94-5.11c-1.12,1.61-2.31,3.34-3.91,5.67-.34-.11-.62,.05-.78,.17-.06,.06-.17,.11-.23,.17l-.12-.06c-.34-.28-.85-.34-1.41-.11l-5.18-2.82,.56-.95-1.95-.92c3.3-.8,6.74-1.22,10.29-1.22,.92,0,1.83,.03,2.73,.09h0Zm-18.59,2.89c-5.63,2.2-10.68,5.53-14.89,9.71,1.96-.27,4.59-.64,9.44-1.31l.51-.06c.05,0,.05-.05,.11-.11,.62-.73,1.92-2.08,3.05-2.53,1.07-.45,2.14-.62,3.21-.56h.33c0-.06,0-.11,0-.17,0-.19,.11-.23,.23-.34,.22-.22,.56-.16,.73-.11q.06,0,.11,0c.06-.34,.34-.62,1.19-1.07,.67-.33,1.64,.06,2.59,.4,.45,.22,.9,.4,1.24,.56q.06,0,.11,0h0c.11,.06,.23,.11,.28,.11,0,0,1.58-.28,1.97-.17l-10.23-4.36h0Zm75.01,4.49l-24.85,.65c9.31,8.98,15.1,21.58,15.1,35.53,0,9.62-2.76,18.6-7.52,26.19l-41.87-7.47-41.87,7.47c-4.76-7.59-7.52-16.57-7.52-26.19s2.93-19.18,7.98-26.92c-1.73,.31-4.58,.83-9.86,1.78l-5.01-2.37c8.54-1.15,13.56-1.82,16.89-2.27,4.36-5.76,9.96-10.53,16.4-13.92L1.2,21.32l6.32-3.6,37.21,17.68c5.55-2.16,11.59-3.35,17.9-3.35,2.2,0,4.36,.14,6.48,.42,3.53-5.07,9.03-12.95,22.61-32.47l10.76,3.56-26.94,30.19c6.37,1.72,12.24,4.69,17.32,8.62l29.43-1.86-.51,4.74h0Zm-32.06-2.67c-1.64,.1-3.16,.2-4.74,.3-4-2.32-8.4-4.04-13.06-5.03,.68-.77,1.36-1.55,2.11-2.39,5.71,1.41,11.01,3.86,15.69,7.13h0Zm-21.92-8.23c-1.7-.19-3.42-.28-5.17-.28-5.37,0-10.53,.9-15.34,2.54l3.76,1.79c3.69-.99,7.57-1.52,11.58-1.52,1.12,0,2.23,.04,3.33,.12,.6-.87,1.19-1.72,1.84-2.65h0Zm-25.74,4.41c-6.18,2.98-11.61,7.27-15.94,12.5,1.76-.24,2.94-.4,4.27-.58,4.25-4.45,9.41-8.02,15.18-10.42l-3.52-1.5h0Zm-18.05,15.25c-5.51,7.74-8.75,17.21-8.75,27.42,0,8.9,2.46,17.22,6.73,24.34l2.97-.53c-4.36-6.89-6.89-15.05-6.89-23.81,0-10.67,3.75-20.46,10.01-28.14-2.44,.42-3.25,.56-4.07,.71h0Zm65.72-7.93c10.61,8.14,17.45,20.95,17.45,35.35,0,8.76-2.53,16.92-6.89,23.81l2.97,.53c4.27-7.11,6.73-15.44,6.73-24.34,0-14.11-6.18-26.78-15.97-35.46-1.31,.03-2.68,.07-4.28,.1h0Zm-31.19,27.92c-.54-.07-1.05-.18-1.23-.36,.32,.87,.61,1.7,1.12,2.13,.04,0,.07-.04,.11-.04,.29-.07,.72-.04,.94,0,.51-.07,.32-.36,.07-.94-.07-.22-.4-.4-.25-.69-.25-.04-.51-.07-.76-.11h0Zm18.03,26.9c.14-.1,.34-.04,.63,0,.32,.05,.49,.02,.77-.15,.68-.43,.76-2.94,.87-3.85,.13-1.02-.11-1.7,.22-2.78,.25-.75,.71-2.63,1.1-3.8,.11-.43,.35-.85,.39-1.14,.07-.32,0-.39,.04-.71-.14-.67-.25-1.17-.35-1.53-.25,.25-.35,.39-.71,.6-.11,.03-.25,.03-.36,.03-.82-.28-2.41-1.81-2.31-1.95-.39,0-.28-.07-.43-.14-.04,1.35-.11,2.77-.04,4.26,.13,3.11,.05,7.82,.18,11.15h0Zm18.95-40.08l-4.38,1.46c1.44,.63,1.8,.62,3.77-.76l.73-.51c-.05-.06-.09-.12-.12-.19Z"/>
  </g>
</svg>